<svg 
 xmlns="http://www.w3.org/2000/svg"
 xmlns:xlink="http://www.w3.org/1999/xlink"
 width="238" height="462" viewBox="0 0 512 512">
<defs>
<linearGradient id="PSgrad_0" x1="70.711%" x2="0%" y1="70.711%" y2="0%">
  <stop offset="0%" stop-color="rgb(255,248,134)" stop-opacity="0.9" />
  <stop offset="100%" stop-color="rgb(240,114,182)" stop-opacity="0.9" />
</linearGradient>

</defs>
<path fill-rule="evenodd"  fill="rgb(255, 255, 255)"
 d="M235.204,10.252 L14.488,230.968 L235.236,451.716 C237.579,454.59 237.579,457.858 235.236,460.201 L235.232,460.204 C232.889,462.547 229.90,462.547 226.747,460.204 L1.795,235.252 C1.489,234.947 1.226,234.616 1.0,234.267 C0.542,231.938 0.288,228.768 1.763,226.716 L226.716,1.763 C229.59,0.579 232.858,0.579 235.201,1.763 L235.204,1.767 C237.547,4.110 237.547,7.909 235.204,10.252 Z"/>
<path fill="url(#PSgrad_0)"
 d="M235.204,10.252 L14.488,230.968 L235.236,451.716 C237.579,454.59 237.579,457.858 235.236,460.201 L235.232,460.204 C232.889,462.547 229.90,462.547 226.747,460.204 L1.795,235.252 C1.489,234.947 1.226,234.616 1.0,234.267 C0.542,231.938 0.288,228.768 1.763,226.716 L226.716,1.763 C229.59,0.579 232.858,0.579 235.201,1.763 L235.204,1.767 C237.547,4.110 237.547,7.909 235.204,10.252 Z"/>
</svg>